<svg xmlns="http://www.w3.org/2000/svg" height="24" viewBox="0 -960 960 960" width="24"><path d="M480-131.539q-33.922 0-57.345-23.423-23.423-23.423-23.423-57.345 0-33.923 23.423-57.345 23.423-23.423 57.345-23.423t57.345 23.423q23.423 23.422 23.423 57.345 0 33.922-23.423 57.345-23.423 23.423-57.345 23.423ZM254-346l-62.46-63.691q55.538-55.538 129.332-87.538 73.795-32 159.192-32t159.127 32.308q73.731 32.307 129.269 88.461L706-346q-44-44-102-69t-124-25q-66 0-124 25t-102 69ZM84-516l-62.46-62.46q87.769-89 204.999-139.884Q343.77-769.229 480-769.229q136.23 0 253.461 50.885Q850.691-667.46 938.46-578.46L876-516q-77-77-178.5-120.5T480-680q-116 0-217.5 43.5T84-516Z"/></svg>